# xmcd
#
# Track frame offsets: 
#        150
#        10337
#        25687
#        43012
#        59937
#        78075
#        95387
#        115105
#        130462
#        147962
#        167812
#        189742
#        208200
#        223712
#
# Disc length: 3201 seconds
#
# Revision: 0
# Processed by: cddbd v1.5.2PL0 Copyright (c) Steve Scherf et al.
# Submitted via: ExactAudioCopy v0.99pb3
#
DISCID=ce0c7f0e
DTITLE=Filter Kings - Finer Things
DYEAR=2008
DGENRE=Alt. Rock
TTITLE0=Finer Things
TTITLE1=Cryin' Shame
TTITLE2=Passion Lingers
TTITLE3=Beat Up Truck
TTITLE4=See Some Heaven
TTITLE5=Is That You?
TTITLE6=Lost and Found
TTITLE7=Ugly Woman
TTITLE8=Hundred Proof Man
TTITLE9=Ten Lonely Tears
TTITLE10=After the Lovin'
TTITLE11=Let's Pretend
TTITLE12=Lost and Found
TTITLE13=Pray For Me Mama (I'm A Gypsy Now)
EXTD=
EXTT0=
EXTT1=
EXTT2=
EXTT3=
EXTT4=
EXTT5=
EXTT6=
EXTT7=
EXTT8=
EXTT9=
EXTT10=
EXTT11=
EXTT12=
EXTT13=
PLAYORDER=
